# xmcd
#
# Track frame offsets:
#	150
#	14595
#	37512
#	54598
#	76566
#	96430
#	127878
#	133937
#	157470
#	175581
#	192526
#	208235
#	229554
#
# Disc length: 3330 seconds
#
# Revision: 1
# Processed by: cddbd v1.5.2PL0 Copyright (c) Steve Scherf et al.
# Submitted via: EasyCDDAExtractor 15.2.5.1
#
DISCID=ab0d000d
DTITLE=Luiz Rocha - Pise Fundo
DYEAR=1900
DGENRE=Blues
TTITLE0=Rochaharp
TTITLE1=Até Ontem
TTITLE2=Carona Errada
TTITLE3=Grão De Arroz
TTITLE4=Poça D'água
TTITLE5=Crazy For So Long
TTITLE6=Trem 418
TTITLE7=Pise Fundo
TTITLE8=Psicodélico Jam
TTITLE9=Ele Chegou
TTITLE10=Não Tem Preço
TTITLE11=Harp Swing Blues
TTITLE12=I'm Down
EXTD=
EXTT0=
EXTT1=
EXTT2=
EXTT3=
EXTT4=
EXTT5=
EXTT6=
EXTT7=
EXTT8=
EXTT9=
EXTT10=
EXTT11=
EXTT12=
PLAYORDER=
